<svg xmlns="http://www.w3.org/2000/svg" width="32" height="32" viewBox="0 0 32 32">
    <path fill="#FFF" fill-rule="evenodd" d="M18.176 4l.924 1.762c.369.705 1.19 1.046 1.947.807l1.899-.593 3.078 3.078-.593 1.899c-.238.759.101 1.579.806 1.948l1.763.923v4.353l-1.763.923c-.705.369-1.044 1.188-.806 1.947l.593 1.9-3.078 3.077-1.898-.593c-.763-.236-1.579.102-1.948.807L18.176 28h-4.352l-.924-1.761c-.369-.706-1.19-1.046-1.947-.808l-1.899.593-3.078-3.077.593-1.899c.238-.76-.101-1.579-.806-1.948L4 18.177v-4.353l1.763-.923c.705-.369 1.044-1.189.806-1.948l-.593-1.899 3.078-3.078 1.898.593c.763.237 1.579-.101 1.948-.806L13.824 4h4.352zm-1.209 2h-1.934l-.361.691c-.818 1.562-2.631 2.315-4.317 1.787l-.743-.232-1.367 1.367.233.743c.527 1.683-.225 3.498-1.788 4.316l-.69.362v1.933l.69.361c1.563.818 2.315 2.634 1.788 4.317l-.233.743 1.367 1.367.744-.233c1.683-.526 3.498.226 4.316 1.788l.361.69h1.934l.361-.69c.818-1.562 2.635-2.312 4.317-1.788l.743.233 1.367-1.367-.233-.744c-.527-1.682.225-3.498 1.788-4.316l.69-.361v-1.933l-.69-.362c-1.563-.818-2.315-2.633-1.788-4.316l.233-.743-1.367-1.367-.744.232c-1.682.528-3.498-.226-4.316-1.788L16.967 6zM16 11.5c2.481 0 4.5 2.02 4.5 4.5 0 2.481-2.019 4.5-4.5 4.5s-4.5-2.019-4.5-4.5c0-2.48 2.019-4.5 4.5-4.5zm0 2c-1.379 0-2.5 1.122-2.5 2.5s1.121 2.5 2.5 2.5 2.5-1.122 2.5-2.5-1.121-2.5-2.5-2.5z"/>
</svg>
