<svg xmlns="http://www.w3.org/2000/svg" width="32" height="32" viewBox="0 0 32 32">
    <path fill="#FFF" fill-rule="evenodd" d="M20.9 20.56L19.43 19 18 20.38 20.45 23h.89l4.44-4.68-1.46-1.38-3.42 3.62zm8.53 2.071c.368-.937.561-1.935.57-2.942.007-2.56-1.165-4.98-3.177-6.562-2.012-1.58-4.64-2.147-7.123-1.534-.207-4.614-4.119-7.79-8.73-7.583-4.612.207-8.177 3.72-7.97 8.334 0 1.005.182 2.002.54 2.942L2 18.018l2 2.712 3.58-1c1.776.923 3.828 1.165 5.77.68.245 2.762 1.848 5.22 4.276 6.558 2.427 1.337 5.36 1.377 7.824.106l3.32.921L31 25.523l-1.57-2.892zM8.19 17.81l-.29-.17-3.09.78-.49-.65 1.44-2.47-.18-.41c-1.27-2.86-.27-6.219 2.357-7.92 2.627-1.7 6.1-1.237 8.19 1.092 2.09 2.33 2.175 5.832.2 8.26-1.974 2.428-5.42 3.059-8.127 1.488h-.01zM28 25.7l-2.84-.77-.36.21c-1.955 1.143-4.373 1.153-6.337.025-1.964-1.128-3.174-3.22-3.173-5.485 2.28-1.228 3.86-3.445 4.28-6 2.38-.815 5.017-.144 6.717 1.71 1.7 1.854 2.141 4.54 1.123 6.84l-.18.41 1.17 2.55-.4.51zm-16.63-8.6c.608 0 1.1-.492 1.1-1.1 0-.608-.492-1.1-1.1-1.1-.608 0-1.1.492-1.1 1.1 0 .608.492 1.1 1.1 1.1zm0-3.1h-.88v-2h.87c.552 0 1-.448 1-1s-.448-1-1-1-1 .448-1 1h-2c0-1.657 1.343-3 3-3s3 1.343 3 3-1.343 3-3 3h.01z"/>
</svg>
