<svg xmlns="http://www.w3.org/2000/svg" width="142" height="42" viewBox="0 0 142 42">
    <g fill="none" fill-rule="evenodd" opacity=".7" transform="translate(1 1)">
        <rect width="141" height="41" x="-.5" y="-.5" stroke="#696969" rx="4"/>
        <g fill="#5C5C5C">
            <path fill-rule="nonzero" d="M58.128 15.728c-2.412 0-4.32 1.81-4.32 4.325 0 2.414 1.908 4.326 4.32 4.326 2.411 0 4.32-1.811 4.32-4.326 0-2.615-1.909-4.325-4.32-4.325zm0 6.84c-1.306 0-2.412-1.106-2.412-2.615 0-1.51 1.106-2.616 2.412-2.616 1.306 0 2.411 1.006 2.411 2.616 0 1.509-1.105 2.615-2.411 2.615zm-9.344-6.84c-2.412 0-4.32 1.81-4.32 4.325 0 2.414 1.908 4.326 4.32 4.326 2.411 0 4.32-1.811 4.32-4.326 0-2.615-1.909-4.325-4.32-4.325zm0 6.84c-1.306 0-2.412-1.106-2.412-2.615 0-1.51 1.106-2.616 2.412-2.616 1.306 0 2.411 1.006 2.411 2.616 0 1.509-1.105 2.615-2.411 2.615zM37.63 17.036v1.81h4.32c-.1 1.006-.502 1.81-1.004 2.314-.603.603-1.608 1.307-3.316 1.307-2.713 0-4.722-2.112-4.722-4.828s2.11-4.828 4.722-4.828c1.407 0 2.512.603 3.316 1.307l1.306-1.307C41.148 11.805 39.741 11 37.732 11 34.115 11 31 14.018 31 17.64c0 3.62 3.115 6.638 6.732 6.638 2.01 0 3.416-.603 4.621-1.911 1.206-1.207 1.608-2.917 1.608-4.225 0-.402 0-.805-.1-1.106h-6.23zm45.615 1.408c-.402-1.006-1.407-2.716-3.617-2.716s-4.02 1.71-4.02 4.325c0 2.414 1.81 4.326 4.22 4.326 1.91 0 3.115-1.207 3.517-1.912l-1.406-1.005c-.503.704-1.105 1.207-2.11 1.207s-1.608-.403-2.11-1.308l5.727-2.414-.201-.503zm-5.828 1.408c0-1.61 1.307-2.515 2.21-2.515.704 0 1.407.403 1.608.906l-3.818 1.61zm-4.722 4.124h1.91V11.402h-1.91v12.574zm-3.014-7.343c-.502-.503-1.306-1.006-2.31-1.006-2.11 0-4.12 1.911-4.12 4.326 0 2.414 1.909 4.225 4.12 4.225 1.004 0 1.808-.503 2.21-1.006h.1v.603c0 1.61-.904 2.515-2.31 2.515-1.106 0-1.91-.805-2.11-1.509l-1.608.704C64.156 26.592 65.362 28 67.472 28c2.21 0 4.019-1.308 4.019-4.426v-7.645h-1.809v.704zm-2.21 5.935c-1.307 0-2.412-1.106-2.412-2.615 0-1.51 1.105-2.616 2.412-2.616 1.306 0 2.31 1.107 2.31 2.616 0 1.509-1.004 2.615-2.31 2.615zm24.515-11.166h-4.521v12.574h1.909V19.25h2.612c2.11 0 4.12-1.51 4.12-3.924 0-2.414-2.01-3.923-4.12-3.923zm.1 6.036h-2.712v-4.326h2.712c1.407 0 2.21 1.208 2.21 2.113-.1 1.106-.903 2.213-2.21 2.213zm11.555-1.81c-1.407 0-2.813.603-3.316 1.91l1.708.705c.402-.705 1.005-.906 1.708-.906 1.005 0 1.91.604 2.01 1.61v.1c-.302-.2-1.105-.503-1.91-.503-1.808 0-3.616 1.006-3.616 2.817 0 1.71 1.507 2.817 3.114 2.817 1.307 0 1.91-.604 2.412-1.208h.1v1.006h1.809v-4.828c-.201-2.213-1.91-3.52-4.02-3.52zm-.201 6.94c-.603 0-1.507-.302-1.507-1.106 0-1.006 1.105-1.308 2.01-1.308.803 0 1.205.201 1.707.402-.2 1.207-1.205 2.012-2.21 2.012zm10.55-6.639l-2.11 5.432h-.1l-2.211-5.432h-2.01l3.316 7.645-1.91 4.225h1.91L116 15.929h-2.01zm-16.88 8.047h1.91V11.402h-1.91v12.574z" transform="translate(12 6)"/>
            <path d="M22.03 14.862L2.007 26.616c-.476.28-1.089.12-1.368-.356-.09-.154-.138-.329-.138-.506V2.246c0-.552.448-1 1-1 .178 0 .353.048.506.138l20.025 11.754c.476.28.635.892.356 1.368-.086.147-.21.27-.356.356zM38.5 9.569h-.84V8h-4.592v1.573h-.844L32.22 7.31h.523c.275-.31.494-.727.657-1.25.162-.523.264-1.097.305-1.72l.14-2.738h3.828V7.31h.835L38.5 9.57zM33.705 7.31h3.12V2.296H34.66l-.093 1.88c-.038.736-.135 1.363-.292 1.882-.157.518-.346.936-.569 1.252zm5.462-1.731c0-.466.092-.885.275-1.257.183-.372.438-.66.765-.862.326-.202.7-.303 1.118-.303.648 0 1.171.224 1.571.673.4.448.6 1.044.6 1.788v.057c0 .463-.089.878-.266 1.246-.177.368-.43.654-.76.86-.33.204-.708.307-1.136.307-.645 0-1.167-.224-1.567-.672-.4-.449-.6-1.042-.6-1.78v-.057zm.818.096c0 .528.122.951.367 1.27.244.32.572.48.982.48.413 0 .741-.163.984-.486.244-.324.365-.777.365-1.36 0-.522-.124-.944-.371-1.268-.248-.324-.577-.486-.987-.486-.401 0-.725.16-.971.48-.246.319-.37.776-.37 1.37zm6.438 1.75c.29 0 .543-.089.76-.264.217-.176.337-.396.36-.66h.77c-.015.273-.109.532-.282.778s-.403.443-.692.59c-.288.146-.594.219-.916.219-.648 0-1.163-.216-1.545-.648-.382-.432-.573-1.023-.573-1.773V5.53c0-.463.085-.874.255-1.235.17-.36.413-.64.731-.839.318-.2.694-.299 1.127-.299.534 0 .977.16 1.33.48.353.319.541.733.565 1.243h-.77c-.023-.308-.14-.56-.349-.758-.21-.198-.468-.297-.776-.297-.413 0-.733.149-.96.446-.227.298-.34.728-.34 1.29v.154c0 .548.112.97.338 1.265.226.296.548.444.967.444zm6.337-3.52h-1.595V8h-.813V3.904h-1.565v-.659h3.973v.66zm2.346 2.904l1.108-3.564h.87l-1.912 5.489c-.296.79-.766 1.186-1.41 1.186l-.154-.013-.303-.057v-.66l.22.018c.275 0 .49-.055.643-.166.154-.112.28-.315.38-.611l.18-.484-1.696-4.702h.888l1.186 3.564zM61.698 8h-.813V3.917h-2.188V8h-.818V3.245h3.82V8zm5.19 0h-.813V5.97h-2.184V8h-.817V3.245h.817v2.061h2.184v-2.06h.813V8zm1.09-2.421c0-.466.092-.885.275-1.257.183-.372.438-.66.764-.862.327-.202.7-.303 1.119-.303.647 0 1.17.224 1.57.673.4.448.6 1.044.6 1.788v.057c0 .463-.088.878-.265 1.246-.177.368-.43.654-.76.86-.33.204-.709.307-1.136.307-.645 0-1.167-.224-1.567-.672-.4-.449-.6-1.042-.6-1.78v-.057zm.817.096c0 .528.123.951.367 1.27.245.32.572.48.983.48.413 0 .74-.163.984-.486.243-.324.365-.777.365-1.36 0-.522-.124-.944-.372-1.268-.247-.324-.576-.486-.986-.486-.402 0-.725.16-.971.48-.247.319-.37.776-.37 1.37zM79.44 8h-.813V5.97h-2.184V8h-.817V3.245h.817v2.061h2.184v-2.06h.813V8zm4.24 0c-.046-.094-.084-.26-.114-.501-.378.393-.829.589-1.353.589-.469 0-.853-.133-1.154-.398-.3-.265-.45-.601-.45-1.008 0-.495.188-.88.565-1.154.376-.274.906-.41 1.588-.41h.791v-.374c0-.285-.085-.51-.255-.68-.17-.168-.42-.252-.751-.252-.29 0-.533.073-.73.22-.196.146-.294.323-.294.531h-.817c0-.237.084-.466.252-.687.169-.221.397-.397.686-.525.288-.13.606-.194.951-.194.548 0 .977.137 1.288.411.31.274.472.651.483 1.132v2.188c0 .437.056.784.167 1.042V8h-.852zm-1.348-.62c.254 0 .496-.066.725-.197.228-.132.394-.304.496-.515v-.975h-.637c-.996 0-1.494.291-1.494.874 0 .255.085.454.255.598.17.144.388.215.655.215z" transform="translate(12 6)"/>
        </g>
    </g>
</svg>
