<svg xmlns="http://www.w3.org/2000/svg" width="32" height="32" viewBox="0 0 32 32">
    <path fill="#FFF" fill-rule="evenodd" d="M16 4c6.617 0 12 5.383 12 12s-5.383 12-12 12c-1.055 0-2.1-.137-3.106-.406l.518-1.932c.837.225 1.708.338 2.588.338 5.514 0 10-4.486 10-10S21.514 6 16 6 6 10.486 6 16c0 .879.114 1.75.338 2.59l-1.932.515C4.137 18.098 4 17.053 4 16 4 9.383 9.383 4 16 4zM9.548 24.976c.303-.526.976-.707 1.502-.403.526.304.707.977.403 1.503-.304.526-.977.706-1.503.402-.526-.303-.706-.976-.402-1.502zM7.444 23c.43-.43 1.125-.43 1.555 0 .43.43.43 1.126 0 1.556-.43.429-1.126.429-1.555 0-.43-.43-.43-1.126 0-1.556zm-1.52-2.453c.525-.303 1.198-.123 1.502.403.304.526.124 1.198-.402 1.502-.527.304-1.2.124-1.503-.402-.304-.527-.124-1.199.403-1.503zM17 8l.001 6.268c.597.346.999.992.999 1.732 0 .18-.024.353-.068.518l3.604 3.603-1.415 1.415-3.603-3.604c-.165.044-.339.068-.518.068-1.105 0-2-.895-2-2 0-.74.402-1.387 1-1.732V8h2z"/>
</svg>
