<svg xmlns="http://www.w3.org/2000/svg" width="142" height="42" viewBox="0 0 142 42">
    <g fill="none" fill-rule="evenodd" opacity=".7" transform="translate(1 1)">
        <rect width="141" height="41" x="-.5" y="-.5" stroke="#696969" rx="4"/>
        <g fill="#5C5C5C" fill-rule="nonzero">
            <path d="M18.128 13.784c-.029-3.223 2.639-4.791 2.761-4.864-1.511-2.203-3.853-2.504-4.676-2.528-1.967-.207-3.875 1.177-4.877 1.177-1.022 0-2.565-1.157-4.228-1.123-2.14.033-4.142 1.272-5.24 3.196-2.266 3.923-.576 9.688 1.595 12.859 1.086 1.553 2.355 3.287 4.016 3.226 1.625-.067 2.232-1.036 4.193-1.036 1.943 0 2.513 1.036 4.207.997 1.744-.028 2.842-1.56 3.89-3.127 1.255-1.78 1.759-3.533 1.779-3.623-.041-.014-3.387-1.291-3.42-5.154zM14.928 4.306c.874-1.093 1.472-2.58 1.306-4.089-1.265.056-2.847.875-3.758 1.944-.806.942-1.526 2.486-1.34 3.938 1.421.106 2.88-.717 3.792-1.793z" transform="translate(15 5)"/>
            <g>
                <path d="M11.645 13.504H9.374L8.13 9.595H3.806l-1.185 3.909H.41L4.694.196H7.34l4.305 13.308zm-3.89-5.549L6.63 4.48c-.119-.355-.342-1.191-.671-2.507h-.04c-.131.566-.342 1.402-.632 2.507L4.182 7.955h3.573zM22.662 8.588c0 1.632-.441 2.922-1.323 3.869-.79.843-1.771 1.264-2.942 1.264-1.264 0-2.172-.454-2.725-1.362h-.04v5.055H13.5V7.067c0-1.026-.027-2.079-.079-3.159h1.875l.119 1.521h.04c.711-1.146 1.79-1.718 3.238-1.718 1.132 0 2.077.447 2.833 1.342.758.896 1.136 2.074 1.136 3.535zm-2.172.078c0-.934-.21-1.704-.632-2.31-.461-.632-1.08-.948-1.856-.948-.526 0-1.004.176-1.431.523-.428.35-.708.807-.839 1.373-.066.264-.099.48-.099.65v1.6c0 .698.214 1.287.642 1.768.428.481.984.721 1.668.721.803 0 1.428-.31 1.875-.928.448-.619.672-1.435.672-2.449zM33.699 8.588c0 1.632-.441 2.922-1.324 3.869-.789.843-1.77 1.264-2.941 1.264-1.264 0-2.172-.454-2.724-1.362h-.04v5.055h-2.132V7.067c0-1.026-.027-2.079-.079-3.159h1.875l.119 1.521h.04c.71-1.146 1.789-1.718 3.238-1.718 1.131 0 2.076.447 2.834 1.342.755.896 1.134 2.074 1.134 3.535zm-2.172.078c0-.934-.211-1.704-.633-2.31-.461-.632-1.078-.948-1.855-.948-.527 0-1.004.176-1.432.523-.428.35-.707.807-.838 1.373-.065.264-.099.48-.099.65v1.6c0 .698.214 1.287.64 1.768.428.48.984.721 1.67.721.803 0 1.428-.31 1.875-.928.448-.619.672-1.435.672-2.449zM46.039 9.772c0 1.132-.393 2.053-1.182 2.764-.867.777-2.074 1.165-3.625 1.165-1.432 0-2.58-.276-3.449-.829l.494-1.777c.936.566 1.963.85 3.082.85.803 0 1.428-.182 1.877-.544.447-.362.67-.848.67-1.454 0-.54-.184-.995-.553-1.364-.367-.369-.98-.712-1.836-1.029-2.33-.869-3.494-2.142-3.494-3.816 0-1.094.408-1.991 1.225-2.689.814-.699 1.9-1.048 3.258-1.048 1.211 0 2.217.211 3.02.632l-.533 1.738c-.75-.408-1.598-.612-2.547-.612-.75 0-1.336.185-1.756.553-.355.329-.533.73-.533 1.205 0 .526.203.961.611 1.303.355.316 1 .658 1.936 1.027 1.145.461 1.986 1 2.527 1.618.539.616.808 1.387.808 2.307zM53.088 5.508h-2.35v4.659c0 1.185.414 1.777 1.244 1.777.381 0 .697-.033.947-.099l.059 1.619c-.42.157-.973.236-1.658.236-.842 0-1.5-.257-1.975-.77-.473-.514-.711-1.376-.711-2.587V5.506h-1.4v-1.6h1.4V2.149l2.094-.632v2.389h2.35v1.602zM63.691 8.627c0 1.475-.422 2.686-1.264 3.633-.883.975-2.055 1.461-3.516 1.461-1.408 0-2.529-.467-3.365-1.401-.836-.934-1.254-2.113-1.254-3.534 0-1.487.43-2.705 1.293-3.652.861-.948 2.023-1.422 3.484-1.422 1.408 0 2.541.467 3.396 1.402.818.907 1.226 2.078 1.226 3.513zm-2.212.069c0-.885-.189-1.644-.572-2.277-.447-.766-1.086-1.148-1.914-1.148-.857 0-1.508.383-1.955 1.148-.383.634-.572 1.405-.572 2.317 0 .885.189 1.644.572 2.276.461.766 1.105 1.148 1.936 1.148.814 0 1.453-.39 1.914-1.168.393-.645.591-1.412.591-2.296zM70.621 5.783c-.211-.039-.436-.059-.672-.059-.75 0-1.33.283-1.738.85-.355.5-.533 1.132-.533 1.895v5.035h-2.131l.02-6.574c0-1.106-.027-2.113-.08-3.021h1.857l.078 1.836h.059c.225-.631.58-1.139 1.066-1.52.475-.343.988-.514 1.541-.514.197 0 .375.014.533.039v2.033zM80.156 8.252c0 .382-.025.704-.078.967h-6.396c.025.948.334 1.673.928 2.173.539.447 1.236.671 2.092.671.947 0 1.811-.151 2.588-.454l.334 1.48c-.908.396-1.98.593-3.217.593-1.488 0-2.656-.438-3.506-1.313-.848-.875-1.273-2.05-1.273-3.524 0-1.447.395-2.652 1.186-3.613.828-1.026 1.947-1.539 3.355-1.539 1.383 0 2.43.513 3.141 1.539.563.815.846 1.823.846 3.02zm-2.033-.553c.014-.632-.125-1.178-.414-1.639-.369-.593-.936-.889-1.699-.889-.697 0-1.264.289-1.697.869-.355.461-.566 1.014-.631 1.658h4.441v.001z" transform="translate(15 5) translate(30 12)"/>
            </g>
            <g>
                <path d="M.424 1.273c.227-.136.483-.25.771-.344.287-.094.625-.141 1.014-.141.627 0 1.121.149 1.483.446.362.297.543.698.543 1.203 0 .401-.121.737-.363 1.009-.242.272-.552.453-.927.543v.029c.207.033.403.089.587.17.185.081.347.189.485.325.139.136.249.294.33.476.08.181.121.381.121.602 0 .362-.073.666-.219.912-.146.246-.336.446-.572.602-.235.155-.499.267-.79.334-.291.067-.582.102-.873.102-.311 0-.618-.033-.922-.097-.304-.064-.585-.171-.844-.32l.262-.805c.168.084.385.165.65.243.265.078.533.116.805.116.446 0 .791-.1 1.033-.3.242-.201.364-.469.364-.805 0-.227-.049-.412-.146-.558-.098-.146-.224-.26-.379-.345-.155-.084-.328-.142-.519-.174s-.38-.049-.567-.049h-.437V3.65h.437c.2 0 .386-.025.558-.078.171-.051.32-.124.446-.218s.225-.206.296-.335c.07-.129.106-.275.106-.437 0-.291-.104-.519-.311-.684-.207-.165-.485-.248-.834-.248-.239 0-.479.039-.718.116-.239.078-.453.162-.641.252l-.229-.745zM8.755 7.433l-.077-.543h-.029c-.316.433-.775.65-1.377.65-.214 0-.407-.036-.582-.107-.175-.071-.327-.168-.456-.291-.13-.123-.229-.268-.301-.437-.071-.168-.106-.353-.106-.553 0-.588.239-1.03.718-1.324.479-.294 1.157-.441 2.037-.441V4.3c0-.621-.326-.931-.978-.931-.465 0-.875.117-1.229.349l-.213-.688c.433-.271.972-.407 1.617-.407 1.233 0 1.85.65 1.85 1.95v1.736c0 .485.023.86.068 1.125h-.942v-.001zM8.61 5.086c-.585 0-1.021.074-1.307.223-.286.149-.429.392-.429.728 0 .246.067.43.202.553.135.123.306.184.512.184.135 0 .263-.024.386-.073.122-.048.229-.115.322-.199.094-.084.169-.186.228-.306.058-.12.086-.247.086-.383v-.727zM14.683 2.719L14.683 3.582 12.723 3.582 12.723 7.433 11.676 7.433 11.676 2.719zM20.677 5.018c0 .375-.052.718-.155 1.028-.104.311-.247.576-.432.795-.184.22-.404.392-.659.514-.256.123-.538.185-.849.185-.621 0-1.067-.223-1.339-.669h-.02v2.483h-1.048V4.271c0-.252-.003-.506-.01-.762-.006-.255-.016-.519-.028-.791h.921l.059.747h.02c.349-.562.879-.844 1.591-.844.277 0 .535.058.771.174.236.117.441.28.616.49.175.21.312.462.412.757.1.295.15.62.15.976zm-1.066.039c0-.233-.028-.448-.083-.645-.055-.197-.136-.365-.242-.504-.106-.139-.236-.249-.388-.33-.152-.081-.322-.121-.51-.121-.148 0-.294.033-.437.097-.143.064-.267.152-.373.262-.107.11-.192.243-.257.398-.065.155-.098.32-.098.495v.786c0 .174.027.336.083.485.055.149.132.278.232.388.1.11.22.196.359.257.139.062.292.092.46.092.395 0 .702-.15.922-.451.22-.301.332-.705.332-1.209zM26.305 2.719l-1.194 3.269c-.284.776-.561 1.411-.829 1.906-.269.495-.525.855-.771 1.082-.362.323-.747.521-1.155.591l-.252-.882c.271-.071.53-.21.776-.417.245-.207.442-.465.592-.776.052-.103.077-.174.077-.213 0-.039-.02-.113-.058-.223L21.783 2.72h1.154l.893 2.629c.046.123.091.262.136.417.046.155.094.327.146.514h.02c.032-.104.068-.234.106-.393.039-.158.091-.341.155-.548l.796-2.619h1.116v-.001zM28.119 4.678h.484c.355 0 .631-.064.824-.194.193-.13.291-.288.291-.476 0-.194-.082-.349-.248-.465-.164-.116-.393-.175-.684-.175-.188 0-.377.031-.566.092-.191.062-.367.138-.529.228l-.271-.678c.271-.148.541-.25.811-.305.268-.055.537-.083.809-.083.215 0 .43.021.646.063.215.042.408.113.576.213.168.1.307.231.412.393.107.162.16.362.16.602 0 .149-.029.28-.088.393-.057.113-.135.213-.232.3-.096.087-.205.159-.324.213-.119.055-.242.096-.363.122v.029c.154.02.305.059.451.117.145.058.275.134.393.228.115.094.209.207.281.339.07.133.105.283.105.451 0 .278-.066.511-.203.698-.135.188-.309.336-.52.446-.209.11-.441.189-.693.238-.252.048-.498.073-.736.073-.291 0-.58-.031-.863-.092-.285-.062-.541-.157-.768-.286l.273-.689c.168.091.359.167.576.228.217.061.438.092.664.092.355 0 .629-.069.82-.208.189-.139.285-.312.285-.519 0-.136-.031-.25-.096-.344-.065-.094-.156-.17-.271-.228-.117-.058-.252-.099-.408-.121-.154-.023-.324-.034-.504-.034h-.494v-.661zM33.715 2.719v1.668c0 .382-.006.725-.02 1.028-.014.304-.029.624-.049.96l.02.019.363-.723c.121-.236.242-.477.365-.723l1.164-2.231h1.357v4.714h-.99V5.763c0-.349.01-.698.025-1.047.016-.35.033-.702.053-1.058h-.049c-.109.291-.219.543-.33.757-.109.213-.219.433-.328.66-.201.388-.4.776-.598 1.164-.197.388-.406.786-.625 1.193h-1.357V2.719h.999zM42.445 2.719L42.445 3.582 41.01 3.582 41.01 7.433 39.98 7.433 39.98 3.582 38.554 3.582 38.554 2.719zM47.789 4.853c0 .09-.004.176-.01.257-.006.081-.016.154-.029.218h-3.143c.014.446.154.791.422 1.033.268.242.623.364 1.062.364.459 0 .883-.074 1.271-.223l.164.728c-.447.194-.973.291-1.582.291-.367 0-.697-.057-.988-.17-.291-.113-.537-.273-.738-.48-.199-.207-.354-.456-.461-.747-.105-.291-.158-.617-.158-.979s.053-.697.158-1.004c.107-.307.258-.574.451-.8.195-.227.43-.404.703-.534.275-.129.582-.194.918-.194.297 0 .566.053.811.16.242.106.449.258.619.456.172.197.303.434.393.708.092.274.137.58.137.916zm-1-.271c0-.369-.088-.668-.266-.897-.178-.229-.435-.345-.771-.345-.305 0-.562.116-.775.349-.213.233-.336.53-.369.893h2.181zM52.01 2.758c.188-.032.426-.058.717-.078.291-.02.588-.029.893-.029.193 0 .412.012.654.034.242.022.475.074.693.155.221.081.404.202.553.364.149.162.225.381.225.659 0 .143-.027.271-.078.383-.053.113-.121.212-.209.296-.088.084-.188.154-.301.208-.113.055-.23.096-.354.121l.01.029c.342.058.621.181.834.369.213.188.32.446.32.776s-.092.592-.271.786c-.182.194-.404.34-.67.437-.266.097-.545.159-.84.185-.293.025-.557.039-.789.039-.26 0-.514-.006-.762-.02-.25-.013-.457-.026-.625-.039V2.758zm1.008 1.882h.533c.162 0 .316-.011.461-.034.146-.022.273-.058.383-.106.111-.049.195-.113.258-.194.061-.081.092-.179.092-.296 0-.213-.088-.37-.268-.47-.178-.1-.457-.15-.838-.15-.109 0-.205.003-.287.01l-.334.029V4.64zm0 2.085c.129.013.238.022.324.029.088.007.189.01.307.01.143 0 .287-.009.436-.029.148-.019.285-.056.408-.111.123-.054.221-.128.295-.222.074-.093.113-.217.113-.371 0-.27-.121-.456-.359-.559-.24-.103-.562-.154-.971-.154h-.553v1.407z" transform="translate(15 5) translate(31)"/>
            </g>
        </g>
    </g>
</svg>
