<svg xmlns="http://www.w3.org/2000/svg" width="48" height="48" viewBox="0 0 48 48">
    <path fill="#FFF" fill-rule="evenodd" d="M34.32 31.886c-.995 0-1.8-.82-1.8-1.832 0-1.013.806-1.834 1.8-1.834s1.801.82 1.801 1.834c0 1.011-.806 1.832-1.8 1.832zm-4.422 0c-.994 0-1.8-.82-1.8-1.832 0-1.013.806-1.834 1.8-1.834s1.8.82 1.8 1.834c0 1.011-.806 1.832-1.8 1.832zm-4.424 0c-.995 0-1.8-.82-1.8-1.832 0-1.013.805-1.834 1.799-1.834.994 0 1.8.82 1.8 1.834 0 1.011-.806 1.832-1.8 1.832zm.712-23.342c-.108-.016-.216-.03-.324-.044v15.83c0 .705-.563 1.278-1.256 1.278h-1.924c-.045 0-.088.018-.12.05-.03.032-.048.076-.047.12v13.227c.497.05.995.075 1.493.076 8.325 0 15.073-6.87 15.073-15.351 0-7.722-5.602-14.113-12.894-15.186h-.001zm-5.398 12.552c-1.008 0-1.828-.813-1.828-1.81 0-1.001.82-1.813 1.828-1.813.482-.002.946.188 1.288.528.343.34.536.802.537 1.285 0 .997-.817 1.81-1.825 1.81zm3 2.395V8.5c-.112 0-.227 0-.34.004C15.163 8.681 8.5 15.398 8.5 23.656c0 7.1 4.922 13.058 11.568 14.707.11.028.224.055.337.08l.002-13.523c0-.695.57-1.264 1.274-1.264h1.939c.092.001.168-.073.17-.165h-.001z"/>
</svg>
