<svg xmlns="http://www.w3.org/2000/svg" width="222" height="40" viewBox="0 0 222 40">
    <path fill="#FFF" fill-rule="evenodd" d="M193.959 20.361c0 4.218-1.138 6.116-5.5 6.116h-1.52c-4.362 0-5.502-1.898-5.502-6.116 0-4.222 1.14-6.114 5.502-6.114h1.52c4.362 0 5.5 1.892 5.5 6.114zm-5.43-10.355h-1.663c-7.21 0-10.062 3.293-10.062 10.344 0 6.945 2.918 10.375 10.104 10.375h1.582c7.182 0 10.103-3.43 10.103-10.374 0-7.05-2.855-10.343-10.065-10.343v-.002zm-117.198.452c1.059-2.53 2.481-3.794 4.707-3.794 2.626 0 4.238 1.583 4.238 5.024v18.758h-4.752V12.197l-6.396 15.4c-.84 2.098-2.032 3.227-4 3.227-1.96 0-3.157-1.129-3.997-3.228l-6.396-15.399v18.249h-4.75V11.688c0-3.441 1.606-5.024 4.24-5.024 2.224 0 3.646 1.264 4.704 3.794l6.2 15.158 6.202-15.158zm84.613 13.157h-2.04c-4.36 0-5.505-1.892-5.505-6.113 0-4.225 1.144-6.117 5.504-6.117h2.04v12.229zm4.75 6.83v-2.58h2.068c7.182 0 10.102-3.432 10.102-10.374 0-7.055-2.855-10.343-10.064-10.343h-8.972c-7.206 0-10.062 3.288-10.062 10.343 0 6.94 2.923 10.374 10.106 10.374h2.07v2.58h4.751zm0-19.06h2.035c4.36 0 5.5 1.894 5.5 6.116 0 4.222-1.14 6.114-5.5 6.114h-2.036V11.384zm-32.081 10.78l2.92-7.305c.136-.334.258-.397.397-.397.138 0 .26.063.393.397l2.923 7.305h-6.633zm9.945 8.28h5.057l-7.78-17.89c-.792-1.825-2.102-2.723-3.905-2.723-1.805 0-3.115.898-3.912 2.723l-7.774 17.89h5.058l1.7-4.249h9.855l1.7 4.25zm-27.077-15.88c-.327 0-.382.24-.382.54v15.34h-4.605V13.58c0-2.066 1.095-3.268 2.779-3.268h14.118v4.252h-11.909zm-9.533 15.88v-4.25H90.036c-.324 0-.375-.176-.375-.477v-3.553h12.006v-4.104H89.661v-2.956c0-.3.05-.54.376-.54h11.912v-4.253H87.835c-1.684 0-2.785 1.202-2.785 3.268v13.604c0 2.063 1.102 3.26 2.785 3.26h14.113v.002zm119.651 0V10.313h-4.609v7.623h-9.957v-7.623h-4.612v20.134h4.612v-8.137h9.957v8.137h4.609zm-187.835.136c-1.302 0-2.355-1.074-2.355-2.396 0-1.325 1.054-2.398 2.355-2.398 1.3 0 2.354 1.072 2.354 2.398 0 1.322-1.054 2.396-2.354 2.396zm-5.783 0c-1.3 0-2.355-1.074-2.355-2.396 0-1.325 1.054-2.398 2.354-2.398s2.355 1.072 2.355 2.398c0 1.322-1.054 2.396-2.354 2.396zm-5.786 0c-1.3 0-2.354-1.074-2.354-2.396 0-1.325 1.054-2.398 2.353-2.398 1.3 0 2.354 1.072 2.354 2.398 0 1.322-1.054 2.396-2.355 2.396h.002zM23.126.058c-.14-.021-.282-.04-.423-.058v20.699c0 .922-.736 1.672-1.643 1.672h-2.515c-.059 0-.115.023-.156.065-.041.042-.064.1-.062.158V39.89c.649.064 1.3.097 1.952.099 10.886 0 19.71-8.985 19.71-20.074 0-10.098-7.326-18.454-16.862-19.857zM16.07 16.47c-1.32 0-2.391-1.063-2.391-2.366 0-1.309 1.072-2.371 2.39-2.371.63-.002 1.237.246 1.685.69.447.446.7 1.05.702 1.681 0 1.304-1.068 2.366-2.387 2.366zm3.923 3.133V0c-.148 0-.298 0-.444.005C8.71.237 0 9.02 0 19.818c0 9.284 6.436 17.076 15.126 19.232.145.036.294.072.442.105l.002-17.683c0-.91.746-1.653 1.665-1.653h2.536c.121.001.22-.095.222-.216h-.001z"/>
</svg>
